<svg width="13" height="13" viewBox="0 0 13 13" fill="none" xmlns="http://www.w3.org/2000/svg">
<g clip-path="url(#clip0_76_846)">
<path d="M5.16728 10.1222C5.48179 10.0396 5.7626 9.91259 6.00705 9.73945C6.24957 9.56783 6.44637 9.34543 6.5909 9.07103C6.73406 8.80006 6.80576 8.47774 6.80576 8.10345C6.80576 7.64166 6.696 7.24783 6.47181 6.91865C6.24873 6.59168 5.91235 6.36178 5.45799 6.23122C5.79166 6.07343 6.0413 5.8702 6.21124 5.62246C6.37985 5.37435 6.46416 5.06395 6.46416 4.69241C6.46416 4.3489 6.40777 4.05835 6.29524 3.82635C6.18 3.59085 6.01909 3.40388 5.81353 3.26331C5.60469 3.12277 5.35749 3.02026 5.06793 2.95881C4.77669 2.89573 4.4581 2.86517 4.105 2.86517H0.625V10.2465H4.20271C4.53338 10.2465 4.85639 10.2049 5.16728 10.1222ZM2.25033 4.1225H3.77083C3.91452 4.1225 4.05494 4.13275 4.18881 4.15892C4.32511 4.18231 4.44256 4.2257 4.54656 4.28852C4.6514 4.34887 4.73433 4.43508 4.797 4.54525C4.85753 4.65542 4.88762 4.79736 4.88762 4.96909C4.88762 5.27839 4.797 5.50395 4.61006 5.64037C4.42122 5.779 4.18279 5.8473 3.89486 5.8473H2.25037L2.25033 4.1225ZM2.25033 8.98932V6.95671H4.01715C4.36698 6.95671 4.65136 7.03717 4.86458 7.19892C5.07753 7.36303 5.18454 7.63305 5.18454 8.01351C5.18454 8.20756 5.15307 8.36825 5.0874 8.49194C5.02199 8.61674 4.93193 8.71488 4.82324 8.78646C4.71456 8.8609 4.58564 8.91126 4.44031 8.94303C4.29715 8.97507 4.14496 8.98928 3.98458 8.98928L2.25033 8.98932Z" fill="white"/>
<path d="M8.0197 9.60775C8.25863 9.85601 8.54275 10.0465 8.88271 10.1824C9.22294 10.3167 9.60176 10.3848 10.0227 10.3848C10.6268 10.3848 11.1453 10.2464 11.5703 9.96877C12.0003 9.69232 12.3156 9.23304 12.5234 8.58965H11.2306C11.1805 8.7551 11.0511 8.91441 10.8384 9.06344C10.6238 9.21262 10.3679 9.28748 10.0717 9.28748C9.66004 9.28748 9.34229 9.17952 9.12252 8.96478C8.90187 8.75007 8.75901 8.35003 8.75901 7.92756H12.6157C12.6433 7.51289 12.6097 7.11682 12.5136 6.73769C12.4166 6.35792 12.2617 6.01933 12.0438 5.7233C11.826 5.42672 11.5487 5.18981 11.2104 5.01503C10.871 4.83781 10.4749 4.75076 10.0227 4.75076C9.61326 4.75076 9.24347 4.82356 8.90816 4.96825C8.57284 5.11343 8.28492 5.31229 8.04214 5.56425C7.79989 5.81484 7.6157 6.11362 7.48237 6.45983C7.35182 6.80486 7.28503 7.17819 7.28503 7.57784C7.28503 7.99114 7.34938 8.37255 7.47692 8.71708C7.60583 9.06348 7.78675 9.3583 8.0197 9.60775ZM8.82606 6.65011C8.86355 6.5167 8.92816 6.3919 9.02286 6.27362C9.1181 6.15728 9.24267 6.05846 9.39456 5.9791C9.55002 5.89865 9.74408 5.85922 9.97863 5.85922C10.3391 5.85922 10.6347 5.96364 10.8091 6.15674C10.9843 6.35133 11.1124 6.62806 11.1474 7.00238H8.75898C8.76583 6.89811 8.78831 6.78013 8.82606 6.65011Z" fill="white"/>
<path d="M11.4508 3.36032H8.45876V4.0887H11.4508V3.36032Z" fill="white"/>
</g>
<defs>
<clipPath id="clip0_76_846">
<rect width="12" height="12" fill="white" transform="translate(0.625 0.625)"/>
</clipPath>
</defs>
</svg>
