<svg width="12" height="12" viewBox="0 0 12 12" fill="none" xmlns="http://www.w3.org/2000/svg">
<g clip-path="url(#clip0_76_852)">
<path d="M10.9643 2.65145C10.7506 2.33392 10.5044 2.03683 10.2339 1.76519C9.96288 1.495 9.66462 1.2497 9.34795 1.03509C9.02808 0.818407 8.68568 0.632735 8.33072 0.481868C7.96901 0.328938 7.59035 0.211704 7.20586 0.133329C6.81113 0.0526335 6.40528 0.0116882 5.99974 0.0116882C5.5939 0.0116882 5.18806 0.0526335 4.79391 0.133329C4.40881 0.21168 4.03017 0.328915 3.66877 0.481868C3.31381 0.632758 2.9711 0.818407 2.65123 1.03509C2.33456 1.2497 2.03632 1.495 1.76585 1.76519C1.4951 2.03683 1.24889 2.33392 1.03486 2.65145C0.819071 2.97077 0.633094 3.31345 0.482813 3.66899C0.329579 4.03009 0.212344 4.40903 0.133102 4.79441C0.0529458 5.18831 0.0120239 5.59415 0.0120239 5.99999C0.0120239 6.40553 0.0529692 6.81051 0.133079 7.20527C0.212321 7.59063 0.329555 7.969 0.48279 8.33069C0.633071 8.68595 0.819047 9.02835 1.03484 9.34764C1.24887 9.66492 1.49508 9.96257 1.76583 10.2339C2.0363 10.5041 2.33454 10.75 2.6512 10.9649C2.97108 11.1807 3.31378 11.3663 3.66874 11.5169C4.03015 11.6696 4.40881 11.7865 4.79388 11.8655C5.18803 11.9468 5.59388 11.9883 5.99972 11.9883C6.40526 11.9883 6.81113 11.9468 7.20584 11.8655C7.59033 11.7865 7.96901 11.6696 8.3307 11.5169C8.68568 11.3663 9.02806 11.1807 9.34793 10.9649C9.66459 10.75 9.96284 10.5041 10.2339 10.2339C10.5044 9.96257 10.7506 9.66492 10.9643 9.34764C11.1813 9.02835 11.3669 8.68598 11.5166 8.33069C11.6698 7.969 11.7868 7.59065 11.8658 7.20527C11.9467 6.81051 11.988 6.40553 11.988 5.99999C11.988 5.59415 11.9467 5.18831 11.8658 4.79441C11.7868 4.40903 11.6698 4.03009 11.5166 3.66899C11.3669 3.31347 11.1813 2.97077 10.9643 2.65145ZM5.99972 0.886563C7.29445 0.886563 8.47659 1.36811 9.3769 2.16199C9.36431 2.18069 8.63597 3.28947 6.70643 4.01284C5.83188 2.40702 4.87134 1.13277 4.79475 1.02984C5.181 0.93686 5.58422 0.886563 5.99972 0.886563ZM4.77399 1.03511H4.77516C4.7693 1.0357 4.76433 1.03628 4.75849 1.03921C4.76843 1.03626 4.77399 1.03511 4.77399 1.03511ZM3.81785 1.37456C3.88599 1.46552 4.83159 2.74881 5.71666 4.32133C3.26142 4.97369 1.13044 4.94678 0.995626 4.94561C1.3275 3.36199 2.39182 2.04796 3.81785 1.37456ZM2.19621 9.41695C1.38159 8.51137 0.885985 7.31371 0.885985 5.99999C0.885985 5.94501 0.88861 5.89181 0.890087 5.83684C0.980719 5.84034 3.50733 5.89706 6.14035 5.10878C6.28683 5.39592 6.42692 5.68715 6.55526 5.97777C6.48802 5.99706 6.42017 6.01696 6.35351 6.03918C3.59388 6.93156 2.19445 9.4143 2.19445 9.4143C2.19445 9.4143 2.19563 9.41577 2.19621 9.41695ZM5.99972 11.1134C4.81376 11.1134 3.72488 10.7061 2.85762 10.0286L2.85673 10.031C2.85673 10.031 2.81025 9.9959 2.7424 9.94092C2.77952 9.97251 2.81988 9.99939 2.85762 10.0286C2.86697 10.0087 3.85205 7.88831 6.86988 6.83624C6.88102 6.83216 6.89241 6.82891 6.9038 6.82513C7.62338 8.69531 7.92045 10.2614 7.99617 10.7082C7.38244 10.9692 6.70788 11.1134 5.99972 11.1134ZM8.85731 10.2409C8.80526 9.93274 8.53273 8.43156 7.86197 6.58827C9.51256 6.32364 10.9433 6.77657 11.0485 6.81048C10.821 8.23567 10.0055 9.46607 8.85731 10.2409ZM7.5503 5.78127C7.51434 5.69357 7.4775 5.60584 7.43977 5.51636C7.33364 5.26692 7.2187 5.01871 7.10002 4.77484C9.11902 3.95027 9.93919 2.76517 9.94884 2.75146C10.6664 3.62249 11.1 4.73507 11.1117 5.94733C11.0377 5.93214 9.30701 5.56021 7.5503 5.78127ZM4.77399 1.03511C4.77399 1.03511 4.76843 1.03628 4.75849 1.03921C4.76435 1.03628 4.7693 1.0357 4.77516 1.03511H4.77399ZM2.7424 9.94092C2.77952 9.97251 2.81988 9.99939 2.85762 10.0286L2.85673 10.031C2.85673 10.031 2.81023 9.99588 2.7424 9.94092Z" fill="white"/>
</g>
<defs>
<clipPath id="clip0_76_852">
<rect width="12" height="12" fill="white"/>
</clipPath>
</defs>
</svg>
