<svg width="12" height="12" viewBox="0 0 12 12" fill="none" xmlns="http://www.w3.org/2000/svg">
<path fill-rule="evenodd" clip-rule="evenodd" d="M3.37396 10.5975V4.39334H1.31205V10.5975H3.37396V10.5975ZM2.34322 3.54658C3.06202 3.54658 3.50978 3.06977 3.50978 2.47442C3.49619 1.86584 3.06202 1.4025 2.3567 1.4025C1.65126 1.40252 1.19016 1.86586 1.19016 2.47444C1.19016 3.06979 1.63767 3.5466 2.32965 3.5466L2.34322 3.54658ZM4.51514 10.5975C4.51514 10.5975 4.5422 4.97545 4.51514 4.39336H6.57737V5.29309H6.56369C6.83485 4.86971 7.32336 4.24767 8.43567 4.24767C9.79268 4.24767 10.8098 5.13439 10.8098 7.04007V10.5975H8.74794V7.27846C8.74794 6.44448 8.4496 5.87539 7.7032 5.87539C7.13366 5.87539 6.79424 6.25905 6.64518 6.62991C6.59064 6.76191 6.57737 6.94732 6.57737 7.13275V10.5975H4.51514Z" fill="white"/>
</svg>
